<?xml version="1.0" encoding="utf-8"?>
<!-- Generator: Adobe Illustrator 21.0.0, SVG Export Plug-In . SVG Version: 6.00 Build 0)  -->
<svg version="1.1" id="Layer_1" xmlns="http://www.w3.org/2000/svg" xmlns:xlink="http://www.w3.org/1999/xlink" x="0px" y="0px"
	 viewBox="0 0 504 161" style="enable-background:new 0 0 504 161;" xml:space="preserve">
<style type="text/css">
	.st0{fill:url(#SVGID_1_);}
	.st1{opacity:0.25;fill:#FFFFFF;}
</style>
<g>
	<g>
		
			<radialGradient id="SVGID_1_" cx="253.794" cy="25.4317" r="321.8109" gradientTransform="matrix(1 0 0 0.4067 0 15.0896)" gradientUnits="userSpaceOnUse">
			<stop  offset="0.1025" style="stop-color:#FFD300"/>
			<stop  offset="0.3578" style="stop-color:#FFBC00"/>
			<stop  offset="0.6968" style="stop-color:#FF9700"/>
		</radialGradient>
		<path class="st0" d="M503.5,78.5c0-2.2-0.3-4.4-0.9-6.5c-3.2-13.9-14.5-26.8-28-30.6l-1.8-0.5C430.7,16.8,349.2,0.5,255.5,0.5
			C142.5,0.5,47.1,24.3,17.2,56.9c-0.7,0.5-1.4,0.9-2,1.4C6.3,65.1,0,84.1,1.2,100.6l1,14.3c1.1,16.5,8.8,18.2,17.1,3.9l1.3-2.3
			c8.2-14.3,20.9-13.9,28.1,1l14.7,30.1c7.2,14.8,23.5,18.3,36.1,7.6l37.1-31.3c12.6-10.6,31.4-8.8,41.7,4.1c0,0,9.3,11.6,16.3,15.6
			c2.7,1.6,11.2-18.4,11.2-18.4c6.5-15.2,13.8-21.1,16.3-13.1c2.5,8,9.7,8.4,16,1s18.9-2.2,28,11.6l13,19.9
			c9.1,13.8,22,12.7,28.7-2.3l8.6-19.2c6.7-15.1,22.8-19,35.7-8.7l52.1,41.6c12.9,10.3,26.6,5.6,30.4-10.5l9-37.7
			c3.8-16,9.9-20.8,13.5-10.7s8.8,12,11.5,4c2.8-8,11.8-7.1,20,2s15,3,15-13.5v-10C503.5,79.2,503.5,78.8,503.5,78.5L503.5,78.5z"/>
	</g>
	<path class="st1" d="M243.5,79c2.6-1.1,5.3-1.8,7.9-2.3c2.7-0.6,5.3-0.9,8-1.2c1.3-0.1,2.7-0.2,4-0.3c1.3-0.1,2.7-0.1,4,0.1
		c1.3,0.1,2.7,0.4,4,0.8c1.3,0.4,2.7,1,4.1,1.9l0,1c-1.3,1-2.6,1.6-3.9,2.2c-1.3,0.5-2.6,0.8-4,1.1c-1.3,0.2-2.7,0.3-4,0.3
		c-1.3,0-2.7,0-4,0c-2.7-0.1-5.3-0.3-8-0.7c-2.7-0.4-5.4-0.9-8.1-1.8L243.5,79z"/>
	<path class="st1" d="M439,34.2c2.5,2.9,4.5,6.4,5,10.7c0.1,1.1,0.1,2.2-0.1,3.4c-0.2,1.1-0.6,2.3-1.2,3.4c-0.6,1.1-1.4,2-2.2,2.8
		c-0.9,0.8-1.8,1.5-2.8,2.1c-0.5,0.3-1,0.6-1.5,0.8l-0.4,0.2c-0.1,0.1-0.3,0.1-0.3,0.1c-0.1,0.1-0.2,0.1-0.3,0.2
		c-0.3,0.3-0.6,0.6-0.9,1.1c-0.6,0.9-1.1,2.3-1.4,3.8c-0.6,3.1-0.9,6.6-1,10.1c-0.3,7.2,0,14.6-0.8,22.4c-0.4,3.9-1,7.9-2.3,12.1
		c-0.7,2.1-1.6,4.3-3,6.4c-1.4,2.1-3.3,4.2-5.7,5.7c-1.2,0.8-2.5,1.4-3.9,1.8c-1.4,0.4-2.8,0.7-4.3,0.7c-3,0.1-6-0.7-8.2-1.9
		c-2.3-1.2-4.2-2.6-5.8-4.1c-1.6-1.5-3-2.9-4.4-4.4c-5.1-6-9.2-12-13.7-17.6c-4.4-5.6-9.2-10.7-14.8-14.8c-2.8-2-5.8-3.8-9.1-5.1
		c-0.8-0.4-1.7-0.6-2.5-0.9l-1.3-0.4l-1.3-0.3c-1.7-0.6-3.5-0.8-5.4-1.2v-1c7.5-1.2,15.7,0,22.8,3.4c7.2,3.4,13.4,8.5,18.9,13.9
		c5.4,5.4,10.2,11.4,14.9,16.4c1.2,1.2,2.4,2.4,3.5,3.4c1.2,1,2.3,1.7,3.3,2.3c1,0.5,1.8,0.6,2.5,0.6c0.3,0,0.7-0.1,1.1-0.2
		c0.4-0.1,0.8-0.3,1.2-0.5c0.7-0.4,1.4-1.1,2.1-2.1c0.7-1,1.3-2.2,1.8-3.6c1-2.8,1.7-6.2,2.2-9.6c0.3-1.7,0.5-3.5,0.7-5.3
		c0.2-1.8,0.4-3.6,0.6-5.4c0.4-3.7,0.8-7.4,1.3-11.2c0.3-1.9,0.6-3.8,1-5.8c0.4-2,1-3.9,1.7-5.9c0.8-2,1.8-4.1,3.6-6
		c0.9-0.9,2.1-1.8,3.4-2.4c0.3-0.2,0.7-0.3,1-0.4c0.2-0.1,0.3-0.1,0.4-0.1l0.3-0.1c0.4-0.1,0.7-0.2,1.1-0.3c2.8-1,4.7-2.8,5.1-6
		c0.2-1.6,0.1-3.3-0.3-5c-0.3-1.7-0.9-3.5-1.6-5.1L439,34.2z"/>
	<path class="st1" d="M29,59.8c-1.7,4.7-3.4,9.4-4.6,14c-0.3,1.1-0.5,2.3-0.7,3.4c-0.1,0.5-0.1,1.1-0.1,1.5c0,0.5,0,0.9,0.1,1.1
		c0,0.1,0.1,0.1,0.1,0c0-0.1-0.1-0.3-0.3-0.5c-0.2-0.2-0.5-0.3-0.6-0.4c-0.1,0-0.1,0-0.1,0c0,0,0,0,0.1,0c0.4-0.1,1.3-0.6,2.2-1.1
		l0.7-0.5l1.1-0.6c0.7-0.4,1.6-0.7,2.4-1c0.4-0.2,0.8-0.2,1.3-0.3l1.3-0.2c0.8-0.1,1.7-0.1,2.5,0c3.4,0.2,6.2,1.4,8.7,2.7
		c2.5,1.3,4.8,2.8,6.9,4.3c2.1,1.5,4.1,3.1,6.1,4.7c3.9,3.1,7.6,6.3,11.4,9c3.7,2.7,7.6,5,11.2,6.1c1.8,0.6,3.5,0.8,5.1,0.7
		c0.7,0,1.8-0.2,2.8-0.4l1.5-0.3l1.5-0.4c4.1-1.3,8.3-3.3,12.4-5.5c4.2-2.3,8.3-4.8,12.5-7.4c4.2-2.6,8.5-5.3,13.2-7.6
		c2.3-1.2,4.7-2.3,7.3-3.3c2.6-1,5.4-1.8,8.6-2.1c0.8,0,1.6-0.1,2.4-0.1l1.2,0.1c0.4,0,0.8,0.1,1.3,0.2c0.9,0.1,1.5,0.3,2.2,0.5
		l2,0.5c2.6,0.8,5.1,1.6,7.5,2.7c4.9,2,9.3,4.6,13.5,6.8c2.1,1.1,4.2,2.1,6.2,2.7c0.5,0.2,1,0.3,1.5,0.4c0.5,0.1,1,0.2,1.5,0.3
		c0.5,0.1,1,0.1,1.5,0.1c0.5,0,1,0,1.5-0.1c4-0.5,8.2-3.4,12.8-5.6c2.3-1.1,4.7-2.2,7.2-2.8c2.5-0.6,5.1-0.9,7.6-0.9l0.1,1
		c-2.4,0.5-4.7,1.2-6.9,2.2c-2.2,1-4.2,2.3-6.1,3.7c-2,1.4-3.9,3-6,4.4c-2.1,1.5-4.5,2.9-7.4,3.7c-0.7,0.2-1.4,0.4-2.2,0.4
		c-0.8,0.1-1.5,0.2-2.2,0.2c-0.7,0-1.5,0-2.2-0.1c-0.7-0.1-1.4-0.1-2.1-0.3c-2.8-0.5-5.3-1.4-7.8-2.3c-4.8-1.9-9.2-3.9-13.6-5.3
		c-2.2-0.8-4.4-1.3-6.6-1.8l-1.7-0.3c-0.5-0.1-1.2-0.2-1.5-0.2l-0.6,0l-0.6,0c-0.4,0-0.9,0.1-1.3,0.1c-1.8,0.3-3.7,1-5.7,1.8
		c-2,0.9-4,2-6,3.1c-8.1,4.8-16.1,10.7-25.1,15.9c-4.5,2.6-9.3,5-14.6,6.7l-2,0.6l-2.1,0.5c-1.4,0.3-2.8,0.6-4.6,0.6
		c-3.3,0.2-6.6-0.4-9.5-1.3c-2.9-0.9-5.5-2.3-7.9-3.7c-2.4-1.5-4.6-3-6.7-4.7c-4.1-3.3-7.8-6.8-11.4-10.1c-3.6-3.3-7.1-6.6-10.6-9
		c-1.8-1.2-3.5-2-5.1-2.4c-0.4-0.1-0.8-0.1-1.2-0.2c-0.2,0-0.4,0-0.6,0c-0.2,0-0.4,0-0.6,0c-0.4,0.1-0.8,0.1-1.1,0.3l-0.6,0.2
		l-1,0.4c-1.4,0.6-2.7,1.1-4.8,1.3c-0.3,0-0.5,0-0.9,0c-0.3,0-0.6-0.1-1-0.1c-0.7-0.2-1.5-0.5-2.2-1.1c-0.7-0.6-1.2-1.3-1.4-2
		c-0.2-0.6-0.4-1.3-0.4-1.8c-0.1-1,0-1.9,0.2-2.6c0.2-0.8,0.3-1.4,0.6-2.1c0.4-1.3,1-2.5,1.5-3.7c2.3-4.7,5-8.9,8.1-12.9L29,59.8z"
		/>
</g>
</svg>
