<?xml version="1.0" encoding="utf-8"?>
<!-- Generator: Adobe Illustrator 21.0.0, SVG Export Plug-In . SVG Version: 6.00 Build 0)  -->
<svg version="1.1" id="Layer_1" xmlns="http://www.w3.org/2000/svg" xmlns:xlink="http://www.w3.org/1999/xlink" x="0px" y="0px"
	 viewBox="0 0 602 197" style="enable-background:new 0 0 602 197;" xml:space="preserve">
<style type="text/css">
	.st0{fill:url(#SVGID_1_);}
	.st1{opacity:0.48;fill:#627C29;}
</style>
<g>
	
		<radialGradient id="SVGID_1_" cx="298.9376" cy="35.7275" r="390.6717" gradientTransform="matrix(1 0 0 0.3906 0 21.7738)" gradientUnits="userSpaceOnUse">
		<stop  offset="0.1025" style="stop-color:#81BC00"/>
		<stop  offset="0.2667" style="stop-color:#70B317"/>
		<stop  offset="0.5351" style="stop-color:#4EA145"/>
	</radialGradient>
	<path class="st0" d="M36.5,168.5c54.6,7.8,75,10,93,1s49-2,71,15s67,7,99,1s41-25,93-18s49,31,102,19s7-40,70-53s29-30,11-55
		S489,32,489,32C257.3-46.9,69,48,36.5,67.5c-26.9,16.1-27,25-18,36C18.5,103.5-33.5,158.5,36.5,168.5z"/>
	<path class="st1" d="M383,83c0,0,13,52,35,62s46,14,46,14s5-33-21-46S390,74,383,83z"/>
	<path class="st1" d="M343,68c2.5,4.4-2,76-32,86s-84,18-68,11s10,5,36-11S334,52,343,68z"/>
	<path class="st1" d="M174.7,51.9c-1.8,1-3.6,1.7-5.4,2.5l-5.4,2.2c-3.6,1.4-7.3,2.8-10.9,4.2c-7.3,2.7-14.5,5.4-21.8,8
		c-14.5,5.3-29,10.4-43.2,16c-3.5,1.4-7,2.8-10.4,4.3c-3.4,1.5-6.7,3-9.7,4.7c-1.5,0.8-2.9,1.7-4,2.4c-0.5,0.4-1,0.8-1.2,1
		c-0.1,0.1-0.1,0.2,0,0.1c0.1-0.1,0.3-0.4,0.6-1.1c0.1-0.2,0.1-0.4,0.2-0.7c0.1-0.2,0.1-0.5,0.2-0.9c0-0.2,0-0.3,0-0.5
		c0-0.2,0-0.4,0-0.5c0-0.4-0.1-0.7-0.1-1.1c-0.2-0.7-0.4-1.4-0.7-1.9c-0.2-0.3-0.3-0.4-0.4-0.6c-0.2-0.2-0.2-0.3-0.4-0.5
		c-0.4-0.5-0.7-0.6-0.7-0.7c-0.1-0.1,0,0,0.2,0l0.1,0l0.2,0.1l0.8,0.3l1.5,0.6c1,0.4,2.1,0.9,3.2,1.4c2.1,1.1,4.3,2.3,6.7,4.2
		c0.6,0.5,1.2,1,1.8,1.6c0.6,0.7,1.2,1.3,1.8,2.1c0.6,0.9,1.1,1.6,1.6,2.7c0.2,0.5,0.5,1,0.7,1.6c0.2,0.6,0.4,1.1,0.5,1.7
		c0.6,2.3,0.5,5,0,7c-0.1,0.3-0.1,0.5-0.2,0.8l-0.2,0.7c-0.2,0.5-0.3,1-0.5,1.4c-0.4,0.8-0.7,1.7-1.1,2.3c-1.6,2.8-3.3,4.7-4.8,6.4
		c-1.5,1.6-3,3-4,4.2c-0.5,0.6-0.9,1.1-1.1,1.3c0,0-0.1,0.1-0.1,0.1c0,0,0-0.1,0.1-0.1c0.1-0.2,0.2-0.3,0.2-0.5
		c0.1-0.3,0.2-0.8,0.3-1.1c0.1-0.1,0.1-0.3,0-0.5c0,0,0-0.1,0-0.1c0,0,0.1,0.1,0.1,0.2c0,0.1,0.1,0.2,0.1,0.3c0,0.1,0,0.1,0.1,0.2
		c0.1,0.1,0.1,0.1,0.2,0.2c0.1,0.1,0.1,0.3,0.3,0.4c0.3,0.3,0.5,0.6,0.9,0.9c1.4,1.2,3.7,2.3,6.4,2.9l1,0.2c0.3,0.1,0.7,0.2,1.1,0.2
		l2.2,0.3c0.8,0.1,1.6,0.1,2.4,0.1c0.8,0,1.6,0.1,2.4,0c1.7-0.1,3.3-0.1,5-0.3l2.5-0.3c0.8-0.1,1.7-0.3,2.6-0.4
		c3.4-0.5,6.9-1.4,10.4-2.3c7-2,14-4.5,21.2-7.2c3.6-1.4,7.3-2.7,11.1-4c3.8-1.3,7.7-2.6,11.9-3.5c4.1-0.9,8.6-1.6,13.4-1.4
		c2.4,0.1,4.8,0.4,7.2,1.1c1.2,0.3,2.4,0.8,3.5,1.3c1.1,0.6,2.3,1.1,3.3,1.8c2.1,1.3,4,2.9,5.6,4.6l4,4.3l7.8,8.6
		c2.6,2.8,5.2,5.6,7.9,8.1c0.7,0.7,1.4,1.3,2,1.9c0.7,0.6,1.4,1.3,2.1,1.8c0.7,0.6,1.4,1.2,2.1,1.8l2.2,1.6c3,2.1,6.2,3.8,9.7,5.2
		c3.5,1.3,7.2,2,11,2.3l0,1c-3.9,0.6-7.9,0.6-12,0.1c-4-0.7-7.9-1.9-11.7-3.6c-7.5-3.5-13.9-8.4-20-13.4c-3-2.5-6-5-8.9-7.5
		l-4.4-3.7c-1.2-1-2.4-1.8-3.7-2.3c-0.6-0.3-1.3-0.5-1.9-0.7c-0.7-0.1-1.3-0.4-2-0.4c-1.3-0.2-2.8-0.2-4.2-0.2c-3,0.2-6.2,0.9-9.5,2
		c-6.6,2.1-13.5,5.4-20.5,8.5c-7.1,3.2-14.4,6.4-22.3,8.9c-3.9,1.3-7.9,2.4-12.1,3.3c-2,0.5-4.2,0.8-6.3,1.1
		c-2.1,0.4-4.4,0.4-6.6,0.6c-1.1,0.1-2.2,0.1-3.4,0.1c-1.1,0-2.3,0-3.4-0.1l-3.5-0.4c-0.6,0-1.2-0.2-1.8-0.3l-1.8-0.4
		c-4.8-1.1-9.8-3-14.4-6.8c-1.1-0.9-2.2-2.1-3.2-3.2c-0.5-0.6-1-1.3-1.4-1.9l-0.7-1c-0.2-0.4-0.4-0.7-0.6-1.1
		c-1.5-3-2.8-6.5-2.2-11.3c0.1-0.8,0.4-1.7,0.6-2.5c0.2-0.6,0.5-1.2,0.8-1.8c0.3-0.5,0.5-0.9,0.8-1.4c0.3-0.4,0.5-0.7,0.8-1.1
		c1-1.3,1.9-2.3,2.6-3.1c1.6-1.7,2.9-3,4-4.1c1.1-1.2,2-2.2,2.3-2.8c0.1-0.2,0.1-0.2,0.1-0.3c0,0,0,0,0,0c0,0,0,0,0,0
		c0,0,0,0.1,0,0.1c0,0.2-0.1,0.8,0.1,1.3c0,0.1,0.1,0.2,0.1,0.3c0,0.1,0,0.2,0.1,0.2c0.1,0.2,0.1,0.2,0.1,0.2c0,0-0.1-0.1-0.1-0.1
		c-0.1-0.1-0.2-0.2-0.3-0.4c-0.6-0.6-1.8-1.3-3-2c-0.7-0.3-1.4-0.7-2.1-1l-2.7-1.2c-0.7-0.3-1.5-0.7-2.4-1.3c-0.8-0.5-1.9-1.3-3-2.5
		c-0.3-0.3-0.5-0.6-0.8-1c-0.3-0.4-0.5-0.7-0.8-1.2c-0.5-0.9-1-2-1.2-3.2c-0.1-0.6-0.2-1.2-0.2-1.8c0-0.3,0-0.6,0-0.9
		c0-0.3,0-0.6,0.1-0.8c0.1-0.6,0.2-1.1,0.3-1.6c0.1-0.5,0.3-0.9,0.4-1.3c0.7-1.6,1.4-2.7,2.1-3.6c0.7-0.8,1.3-1.5,1.9-2
		c1.2-1.1,2.3-1.9,3.4-2.5c2.1-1.4,4.1-2.4,6-3.3c3.9-1.8,7.7-3.3,11.5-4.6c3.8-1.4,7.6-2.6,11.3-3.7c15.1-4.5,30.3-8,45.5-11.1
		c7.6-1.5,15.3-2.9,22.9-4.2c3.8-0.6,7.7-1.3,11.5-1.9l5.8-0.9l2.9-0.5c0.9-0.2,1.9-0.3,2.8-0.5L174.7,51.9z"/>
	<path class="st1" d="M474.2,41.5c11.2,2.5,22.1,5.9,33,9.7c10.8,3.8,21.5,8.2,31.9,13.7c5.2,2.8,10.4,5.8,15.4,9.6
		c2.5,2,5,4.1,7.4,7c1.2,1.4,2.3,3.1,3.3,5.3c1,2.1,1.8,4.8,1.6,7.9c0,0.8-0.2,1.5-0.3,2.3c-0.2,0.8-0.4,1.5-0.6,2.2
		c-0.3,0.7-0.6,1.4-0.9,2c-0.3,0.6-0.7,1.2-1.1,1.8c-1,1.4-2.1,2.7-3.2,4.1c-1.2,1.2-2.4,2.5-3.6,3.7c-1.3,1.1-2.6,2.2-3.9,3.3
		c-1.4,1-2.8,1.9-4.2,2.9c-1.5,0.8-2.9,1.7-4.4,2.5c-1.5,0.7-3,1.4-4.5,2c-1.5,0.6-3.1,1.2-4.6,1.7c-6.2,2-12.5,3.1-18.9,3.5
		c-1.6,0.1-3.2,0.1-4.8,0.2c-1.6,0-3.2,0-4.8-0.1c-0.8-0.1-1.6-0.1-2.4-0.2l-2.5-0.3c-0.8-0.1-2.9-0.6-3.7-0.9l-1.5-0.6
		c-0.5-0.2-0.9-0.4-1.3-0.6c-3.3-1.5-5.9-3.1-8.5-4.7c-2.5-1.6-5-3.3-7.3-4.9c-2.4-1.6-4.7-3.3-7-5.1c-2.3-1.7-4.6-3.4-6.8-5.1
		c-9-6.9-17.7-13.9-26.6-20.7c-4.4-3.4-8.9-6.7-13.5-9.8c-2.3-1.5-4.6-3-7.1-4.3c-2.4-1.3-4.9-2.5-7.7-3.1v-1c2.9-0.6,6-0.4,9,0
		c3,0.4,5.9,1.1,8.7,2c5.7,1.7,11.1,4,16.4,6.4c10.6,4.9,20.5,10.7,30.2,16.6c2.4,1.5,4.8,3,7.2,4.5l7.1,4.4c2.3,1.5,4.7,2.9,7,4.2
		c2.2,1.3,4.6,2.6,6.4,3.4c0.2,0.1,0.5,0.2,0.6,0.3c0.2,0,0.3,0.1,0.5,0.2c0.1,0,0.2,0.1,0.2,0.1c0,0,0,0,0,0s0,0,0,0c0,0,0,0,0,0
		l0.2,0l1.7,0.2l1.8,0.1c1.2,0.1,2.4,0.1,3.7,0.1c1.2,0,2.5,0,3.7-0.1c5-0.3,9.9-1,14.5-2.3c1.2-0.3,2.3-0.8,3.4-1.1
		c1.1-0.4,2.2-0.9,3.3-1.3c1.1-0.5,2.1-1,3.1-1.5l2.9-1.8l2.7-2l2.5-2.3c0.7-0.8,1.5-1.7,2.2-2.5c0.1-0.1,0,0.3,0,0.6
		c0,0.3,0.1,0.1,0-0.3c-0.1-0.5-0.5-1.2-1.1-2c-1.1-1.6-2.7-3.4-4.5-5.1c-3.7-3.4-8-6.7-12.5-9.8c-9-6.2-18.7-11.9-28.5-17.4
		c-9.8-5.6-19.8-11-29.8-16.5L474.2,41.5z"/>
</g>
</svg>
