<?xml version="1.0" encoding="utf-8"?>
<!-- Generator: Adobe Illustrator 21.0.0, SVG Export Plug-In . SVG Version: 6.00 Build 0)  -->
<svg version="1.1" id="Layer_1" xmlns="http://www.w3.org/2000/svg" xmlns:xlink="http://www.w3.org/1999/xlink" x="0px" y="0px"
	 viewBox="0 0 309 119" style="enable-background:new 0 0 309 119;" xml:space="preserve">
<style type="text/css">
	.st0{fill:#805B12;}
	.st1{fill:url(#SVGID_1_);}
	.st2{fill:#E3CC8C;}
	.st3{fill:url(#SVGID_2_);}
	.st4{fill:url(#SVGID_3_);}
</style>
<g>
	<g>
		<path class="st0" d="M0.8,47.9l0.6,11.5c1,18.3,32.4,31.5,70.1,29.5c37.8-2,67.6-18.4,66.7-36.7l-0.6-11.5"/>
		
			<radialGradient id="SVGID_1_" cx="186.4588" cy="-722.7156" r="140.9444" gradientTransform="matrix(0.539 -2.824149e-02 1.532829e-02 0.2925 -20.2171 261.1626)" gradientUnits="userSpaceOnUse">
			<stop  offset="0.1025" style="stop-color:#D1B000"/>
			<stop  offset="0.2229" style="stop-color:#D4B517"/>
			<stop  offset="0.4745" style="stop-color:#DCC153"/>
			<stop  offset="0.6968" style="stop-color:#E3CC8C"/>
		</radialGradient>
		<path class="st1" d="M137.6,40.9c1,18.3-28.9,34.7-66.7,36.7c-37.8,2-69.2-11.2-70.1-29.5s28.9-34.7,66.7-36.7
			S136.7,22.6,137.6,40.9z"/>
		
			<ellipse transform="matrix(0.9986 -5.232623e-02 5.232623e-02 0.9986 -1.9053 4.3238)" class="st2" cx="81.6" cy="38.5" rx="7.4" ry="4.8"/>
		
			<ellipse transform="matrix(0.9986 -5.232623e-02 5.232623e-02 0.9986 -2.0232 2.7774)" class="st2" cx="52" cy="40" rx="7.4" ry="4.8"/>
		
			<ellipse transform="matrix(0.9986 -5.232623e-02 5.232623e-02 0.9986 -2.4918 3.6977)" class="st2" cx="69.4" cy="49.4" rx="7.4" ry="4.8"/>
	</g>
	<g>
		<path class="st0" d="M170.9,27.6l-1.1,11.5c-1.8,18.2,27.3,36,64.9,39.7s69.6-8.1,71.4-26.3l1.1-11.5"/>
		
			<radialGradient id="SVGID_2_" cx="336.3361" cy="-656.0741" r="140.9444" gradientTransform="matrix(0.5371 5.272416e-02 -2.861644e-02 0.2915 39.6219 208.0321)" gradientUnits="userSpaceOnUse">
			<stop  offset="0.1025" style="stop-color:#D1B000"/>
			<stop  offset="0.2229" style="stop-color:#D4B517"/>
			<stop  offset="0.4745" style="stop-color:#DCC153"/>
			<stop  offset="0.6968" style="stop-color:#E3CC8C"/>
		</radialGradient>
		<path class="st3" d="M307.2,41.2c-1.8,18.2-33.8,30-71.4,26.3c-37.7-3.7-66.7-21.5-64.9-39.7c1.8-18.2,33.8-30,71.4-26.3
			S309,23,307.2,41.2z"/>
		
			<ellipse transform="matrix(9.768805e-02 -0.9952 0.9952 9.768805e-02 197.2368 278.5309)" class="st2" cx="252.2" cy="30.5" rx="4.8" ry="7.4"/>
		
			<ellipse transform="matrix(9.768805e-02 -0.9952 0.9952 9.768805e-02 173.5876 246.5164)" class="st2" cx="222.7" cy="27.5" rx="4.8" ry="7.4"/>
		
			<ellipse transform="matrix(9.768805e-02 -0.9952 0.9952 9.768805e-02 175.9469 272.9148)" class="st2" cx="238.5" cy="39.4" rx="4.8" ry="7.4"/>
	</g>
	<g>
		<path class="st0" d="M85,73.3v11.6c0,18.3,30.7,33.2,68.5,33.2S222,103.2,222,84.8V73.3"/>
		
			<radialGradient id="SVGID_3_" cx="283.5541" cy="-651.0144" r="140.9444" gradientTransform="matrix(0.5397 0 0 0.2929 0.4603 264.175)" gradientUnits="userSpaceOnUse">
			<stop  offset="0.1025" style="stop-color:#D1B000"/>
			<stop  offset="0.2229" style="stop-color:#D4B517"/>
			<stop  offset="0.4745" style="stop-color:#DCC153"/>
			<stop  offset="0.6968" style="stop-color:#E3CC8C"/>
		</radialGradient>
		<ellipse class="st4" cx="153.5" cy="73.5" rx="68.5" ry="33.2"/>
		<ellipse class="st2" cx="166.2" cy="68.2" rx="7.4" ry="4.8"/>
		<ellipse class="st2" cx="136.6" cy="68.1" rx="7.4" ry="4.8"/>
		<ellipse class="st2" cx="153.4" cy="78.4" rx="7.4" ry="4.8"/>
	</g>
</g>
</svg>
