<?xml version="1.0" encoding="utf-8"?>
<!-- Generator: Adobe Illustrator 21.0.0, SVG Export Plug-In . SVG Version: 6.00 Build 0)  -->
<svg version="1.1" id="Layer_1" xmlns="http://www.w3.org/2000/svg" xmlns:xlink="http://www.w3.org/1999/xlink" x="0px" y="0px"
	 viewBox="0 0 509 190.3" style="enable-background:new 0 0 509 190.3;" xml:space="preserve">
<style type="text/css">
	.st0{fill:#E1643D;}
	.st1{fill:#DF4400;}
	.st2{fill:#F09274;}
	.st3{fill:#EB926F;}
	.st4{fill:#EEABA2;}
	.st5{fill:#E14200;}
</style>
<g>
	<g>
		<path class="st0" d="M503.8,112.3c0.4-1.5-0.5-3-2-3.4c-1.1-0.2-2.1-0.4-3.2-0.6c-1-0.2-2-0.3-3-0.5c-0.3,0-0.4,0-0.6-0.1l-0.4,0
			l-0.9-0.1l-3.5-0.2l-1.8-0.1l-1.3,0l-5.2,0l-4.3,0.1l-15.4,0.5c-9.6,0.2-18.8,0.1-27.8-0.5c-9-0.6-17.9-1.5-26.6-3.1l-3.3-0.5
			l-3.2-0.7l-6.5-1.4l-6.4-1.7c-2.1-0.5-4.3-1.1-6.3-1.8l-6.3-2c-2.1-0.6-4.3-1.5-6.4-2.3c-2.1-0.8-4.4-1.5-6.4-2.4l-6.2-2.5
			c-8.2-3.5-15.7-7.2-23.5-11.7l-3-1.7l-3.2-1.9l-6.7-4c-4.6-2.8-9.9-5.8-15.4-8.8c-2.8-1.4-5.6-2.8-8.5-4.2
			c-2.9-1.3-5.8-2.6-8.6-3.8c-5.8-2.3-11.6-4.6-17.2-6.5c-5.7-2-11.3-3.5-16.9-5.2c-5.5-1.5-11-2.9-16.5-4.3
			c-10.8-2.5-21.5-4.8-32.3-6.8c-21.6-4-43.3-7.1-64.7-9.3c-10.7-1.1-21.3-2.1-31.6-3c-10.3-0.9-20.5-1.8-29.2-3
			C64.5,12.8,44.9,7.7,30.1,2.6c-1.4-0.5-2.9,0.2-3.4,1.6L1.1,70.4c-0.5,1.4,0.2,3,1.6,3.5h0l2.2,0.8l4.2,1.5
			c2.8,0.9,5.5,1.8,8.3,2.7c5.5,1.7,11,3.3,16.6,4.8c5.6,1.5,11.1,2.8,16.8,4l4.2,0.9c1.4,0.3,2.7,0.6,4.4,0.9l4.8,0.8
			c1.6,0.3,3,0.4,4.5,0.7c11.9,1.7,22.3,2.6,32.7,3.6c10.4,1,20.4,2,30.4,3.1c19.9,2.2,39.4,5.1,58.6,8.8c9.6,1.8,19.1,4,28.6,6.2
			c4.6,1.2,9.2,2.4,13.6,3.6c4.3,1.3,8.8,2.6,12.8,4.1c4.2,1.4,8.1,3,11.9,4.5l5.6,2.5l5.5,2.8c3.7,2,7.4,4.1,11.6,6.7l6.6,4
			l3.5,2.1l3.8,2.2c10.1,5.9,21.2,11.6,32.1,16.3l8.2,3.4c2.7,1.1,5.4,2.1,8.1,3.1c2.8,1,5.3,2.1,8.2,3l8.6,2.8
			c2.8,1,5.7,1.7,8.6,2.5l8.7,2.3l8.8,1.9l4.4,1l4.4,0.8c11.7,2.2,23.5,3.5,35.3,4.4c11.7,0.9,23.4,1,34.5,0.8l15.7-0.3l3.4-0.1
			l2.6,0l0.6,0l0.2,0c0.1,0,0.2,0,0.4,0l0.1,0l0,0c0,0,0.1,0-0.1,0c-0.4,0-0.7-0.1-1.1-0.1c-0.7-0.1-1.5-0.3-2.1-0.5L503.8,112.3z"
			/>
		<path class="st1" d="M481.2,131.1c-14.5-2.2-28.8-4.4-43.1-7c-3.6-0.6-7.1-1.3-10.6-2c-3.5-0.8-7.1-1.4-10.5-2.3
			c-7-1.5-13.9-3.4-20.7-5.4c-1.7-0.5-3.3-1.2-5-1.7c-1.7-0.6-3.3-1.1-4.9-1.8l-4.8-2l-5-2.2c-6.7-2.9-13.5-5.7-20.4-8.2
			c-13.8-4.9-27.8-9.2-42.4-11.7c12.9,7.2,26,13.6,39.1,19.8c6.6,3.1,13.1,6.1,19.7,9.1l5,2.3l5.3,2.1c1.8,0.8,3.6,1.3,5.3,1.9
			c1.8,0.6,3.6,1.2,5.4,1.7c14.4,4,29.1,6.2,43.7,7.3C451.9,132.1,466.6,132.3,481.2,131.1z"/>
		<path class="st2" d="M392.2,142.7c-19.6-5.6-39-11.7-57.9-18.8c-9.5-3.5-18.7-7.5-27.8-11.8l-3.4-1.6l-3.3-1.8
			c-2.2-1.2-4.4-2.3-6.5-3.6l-6.5-3.8c-2.3-1.4-4.6-2.7-6.9-3.9c-9.2-4.9-18.8-9-28.5-12.6c-9.7-3.7-19.5-6.8-29.5-9.5
			c-10-2.7-20.1-4.8-30.3-6.3c-10.2-1.5-20.6-2.3-30.9-1.5l0,1.9c10.1,0.5,20.1,2.2,30,4.5c9.9,2.2,19.6,5,29.2,8.1
			c19.2,6.3,38.1,13.7,55.8,23.1c2.2,1.2,4.3,2.4,6.4,3.7l6.7,4c2.2,1.4,4.6,2.5,6.9,3.7l3.5,1.8l3.5,1.7
			c9.4,4.5,19.1,8.1,28.9,11.4c9.8,3.1,19.8,5.9,29.8,8.2c10,2.2,20.1,4.2,30.4,5.3L392.2,142.7z"/>
		<path class="st3" d="M230.5,51.3c-15.4-5.3-31.2-9.3-47.1-12.5c-15.9-3.3-32.1-5.5-48.5-6.5c-4.1-0.2-8.3-0.3-12.2-0.4l-6-0.2
			l-6-0.4c-8-0.5-15.9-1.3-23.9-2.3c-15.9-2.2-31.7-5.1-47.5-9c14.7,7,30.5,11.7,46.5,15.1l6,1.2l6.1,1c2,0.3,4.1,0.6,6.1,0.8
			c2,0.3,4.1,0.5,6.1,0.7l6.1,0.5l6.2,0.3l12,0.5c16,0.8,31.9,2.6,47.9,4.6C198.4,46.7,214.4,49,230.5,51.3z"/>
		<path class="st4" d="M294.1,93.8c-11.2-8.8-23.8-15.7-36.9-21.5c-6.5-3-13.2-5.4-20-7.8L227,61.3c-3.4-1-6.9-1.9-10.4-2.7
			c-3.5-0.9-7-1.6-10.5-2.2l-5.3-1c-1.8-0.4-3.5-0.7-5.3-0.8l-10.6-1.3c-1.8-0.3-3.5-0.4-5.3-0.5l-5.4-0.3l-5.3-0.3l-2.7-0.1l-2.7,0
			l-10.7,0.2c-3.6,0-7.1,0.4-10.7,0.8c-3.5,0.4-7.1,0.8-10.6,1.2c3.6,0.3,7.1,0.5,10.6,0.7c3.5,0.2,7,0.2,10.6,0.7l10.5,0.9
			c1.8,0.1,3.5,0.3,5.2,0.6l5.2,0.7c13.9,1.7,27.7,4.3,41.3,7.6c3.4,0.9,6.8,1.6,10.2,2.5l10.1,2.9c3.4,1,6.7,2.1,10,3.1
			c1.7,0.5,3.3,1.1,5,1.7l5,1.7C268.3,82.2,281.4,87.5,294.1,93.8z"/>
		<path class="st1" d="M468.5,174.1c-29.2-1.8-57.9-6.1-85.6-14.4c-13.9-4.1-27.7-8.4-41.1-13.7c-13.5-5.2-26.7-11-39.2-17.9
			c-12.8-7-26.1-13.6-39.7-19.2c-13.7-5.5-27.6-10.5-41.8-14.3c-14.2-3.9-28.7-6.8-43.2-8.7c-14.6-1.7-29.3-2.6-43.9-2.2
			c14.5,1.7,28.9,3.7,43.1,6.7l10.6,2.3c3.5,0.8,7,1.8,10.5,2.7c3.5,0.9,7,2,10.4,2.9c3.5,0.9,6.9,2.1,10.4,3.2
			c13.7,4.5,27.3,9.5,40.4,15.4c6.6,2.9,13.1,5.9,19.6,9.1c6.5,3.2,12.7,6.6,19.2,10.2c26.2,14,54.3,23.6,82.9,30.4
			c7.1,1.7,14.3,3.3,21.6,4.5c7.3,1.2,14.6,2.1,21.9,2.7C439.2,175,453.9,175.2,468.5,174.1z"/>
	</g>
	<g>
		<path class="st5" d="M4.6,109.9c-0.3-1.5,0.7-3,2.2-3.2c1.1-0.2,2.2-0.3,3.2-0.4c1-0.1,2-0.2,3-0.3c0.3,0,0.4,0,0.6,0l0.4,0l0.9,0
			l3.5,0l1.8,0l1.3,0.1l5.1,0.3l4.3,0.3l15.4,1.3c9.6,0.7,18.7,1.2,27.8,1.1c9-0.1,17.9-0.5,26.7-1.7l3.3-0.4l3.3-0.5l6.5-1l6.5-1.3
			c2.2-0.4,4.3-0.9,6.4-1.5l6.4-1.6c2.1-0.5,4.4-1.3,6.6-1.9c2.2-0.7,4.5-1.3,6.6-2l6.4-2.2c8.4-3,16-6.3,24.1-10.4l3.1-1.6l3.3-1.7
			l6.9-3.7c4.8-2.5,10.2-5.3,15.9-7.9c2.8-1.3,5.8-2.5,8.7-3.8c2.9-1.2,5.9-2.3,8.8-3.4c5.9-2,11.8-4,17.5-5.5
			c5.8-1.7,11.5-2.9,17.1-4.3c5.6-1.2,11.2-2.3,16.7-3.4c10.9-1.9,21.8-3.7,32.7-5.1c21.8-2.8,43.6-4.7,65.1-5.8
			c10.7-0.6,21.4-0.9,31.7-1.3c10.3-0.4,20.6-0.7,29.3-1.4c15-1.3,34.8-5.3,49.9-9.6c1.4-0.4,2.9,0.4,3.3,1.8l21.9,67.5
			c0.5,1.4-0.3,3-1.8,3.4l0,0l-2.2,0.7l-4.3,1.2c-2.8,0.8-5.6,1.5-8.4,2.2c-5.6,1.4-11.2,2.7-16.8,3.8c-5.6,1.1-11.3,2.2-17,3.1
			l-4.3,0.7c-1.4,0.2-2.8,0.4-4.5,0.6l-4.9,0.6c-1.6,0.2-3,0.3-4.6,0.4c-11.9,1-22.4,1.4-32.9,1.8c-10.4,0.4-20.5,0.9-30.5,1.5
			c-20,1.1-39.6,2.9-59,5.6c-9.7,1.3-19.3,2.9-28.9,4.7c-4.6,0.9-9.3,1.9-13.8,2.9c-4.4,1.1-8.9,2.1-13,3.4
			c-4.3,1.1-8.2,2.5-12.1,3.9l-5.7,2.2l-5.6,2.5c-3.8,1.8-7.6,3.7-12,6.1l-6.8,3.7l-3.6,1.9l-3.9,2c-10.4,5.4-21.8,10.4-32.9,14.5
			l-8.4,2.9c-2.8,1-5.5,1.8-8.3,2.6c-2.8,0.8-5.4,1.8-8.4,2.5l-8.7,2.3c-2.9,0.8-5.8,1.4-8.8,2l-8.8,1.9l-8.8,1.5l-4.4,0.7l-4.4,0.5
			c-11.8,1.6-23.7,2.2-35.4,2.5c-11.7,0.2-23.4-0.3-34.5-1L25,186l-3.4-0.2l-2.6-0.1l-0.6,0l-0.2,0c-0.1,0-0.2,0-0.4,0l-0.1,0l0,0
			c0,0-0.1,0,0.1,0c0.4,0,0.7,0,1.1-0.1c0.7-0.1,1.5-0.2,2.2-0.4L4.6,109.9z"/>
		<path class="st1" d="M26.2,130c14.6-1.5,29-2.8,43.4-4.7c3.6-0.4,7.2-0.9,10.7-1.4c3.5-0.6,7.1-1,10.6-1.7
			c7.1-1.2,14.1-2.6,20.9-4.3c1.7-0.4,3.4-1,5.1-1.4c1.7-0.5,3.4-0.9,5-1.5l4.9-1.7l5.1-1.9c6.9-2.6,13.8-4.9,20.8-7
			c14-4.2,28.3-7.7,43-9.4c-13.2,6.5-26.6,12.1-40.1,17.6c-6.7,2.7-13.4,5.4-20.2,8.1l-5.1,2l-5.4,1.9c-1.8,0.7-3.6,1.1-5.4,1.6
			c-1.8,0.5-3.6,1-5.5,1.4c-14.6,3.2-29.4,4.6-44.1,5C55.4,132.5,40.7,132,26.2,130z"/>
		<path class="st2" d="M114.4,146.4c19.9-4.5,39.6-9.5,58.9-15.7c9.7-3,19.1-6.5,28.4-10.3l3.5-1.4l3.4-1.6c2.3-1.1,4.5-2.1,6.7-3.3
			l6.7-3.5c2.3-1.2,4.7-2.4,7.1-3.5c9.5-4.4,19.2-8,29.1-11c9.9-3.1,19.8-5.8,29.9-7.9c10.1-2.1,20.3-3.7,30.6-4.7
			c10.3-0.9,20.7-1.2,30.9,0.2l-0.1,1.9c-10.1,0-20.2,1.2-30.2,2.8c-10,1.7-19.8,3.9-29.6,6.5c-19.5,5.2-38.8,11.7-57,20
			c-2.3,1-4.5,2.2-6.6,3.3l-6.9,3.6c-2.3,1.3-4.7,2.3-7.1,3.4l-3.6,1.6l-3.6,1.5c-9.6,4-19.5,7.1-29.5,9.8
			c-10,2.6-20.1,4.8-30.2,6.5c-10.1,1.7-20.3,3.1-30.6,3.6L114.4,146.4z"/>
		<path class="st3" d="M280.8,63.8c15.6-4.5,31.6-7.6,47.7-10c16.1-2.4,32.4-3.7,48.8-3.8c4.1,0,8.3,0.2,12.2,0.3l6,0.2l6-0.1
			c8,0,16-0.4,23.9-1c16-1.3,31.9-3.4,47.9-6.4c-15.1,6.2-31,10.1-47.2,12.5l-6.1,0.9L414,57c-2,0.2-4.1,0.3-6.1,0.5
			c-2,0.1-4.1,0.3-6.1,0.4l-6.2,0.1l-6.2-0.1l-12-0.2c-16,0-32,0.9-48.1,2C313.1,61,297,62.5,280.8,63.8z"/>
		<path class="st4" d="M215,102.9c11.7-8.2,24.7-14.4,38-19.5c6.7-2.6,13.5-4.7,20.4-6.7l10.4-2.6c3.5-0.8,7-1.5,10.5-2.1
			c3.5-0.7,7.1-1.2,10.6-1.7l5.3-0.7c1.8-0.3,3.5-0.5,5.3-0.6l10.7-0.7c1.8-0.2,3.6-0.2,5.4-0.2l5.4,0l5.4,0l2.7,0l2.7,0.2l10.7,0.8
			c3.6,0.2,7.1,0.8,10.6,1.4c3.5,0.6,7,1.2,10.5,1.8c-3.6,0.1-7.1,0.1-10.6,0.1c-3.5,0-7-0.2-10.6,0.1l-10.5,0.4
			c-1.8,0-3.5,0.1-5.3,0.3l-5.2,0.4c-14,0.9-27.9,2.8-41.6,5.4c-3.4,0.7-6.9,1.2-10.3,2l-10.2,2.4c-3.4,0.8-6.8,1.7-10.2,2.6
			c-1.7,0.4-3.4,0.9-5.1,1.4l-5.1,1.4C241.4,92.7,228.1,97.3,215,102.9z"/>
		<path class="st1" d="M36.6,173.6c29.2-0.2,58.2-2.9,86.3-9.8c14.1-3.3,28.1-6.9,41.8-11.5c13.7-4.4,27.2-9.5,40.1-15.7
			c13.2-6.3,26.8-12.2,40.7-17.1c13.9-4.8,28.1-9,42.5-12c14.4-3.1,29-5.2,43.7-6.3c14.7-0.9,29.4-1,43.9,0.2
			c-14.6,0.9-29.1,2.2-43.4,4.4l-10.7,1.8c-3.6,0.6-7.1,1.4-10.6,2.1c-3.6,0.7-7.1,1.6-10.6,2.3c-3.5,0.8-7,1.7-10.5,2.6
			c-13.9,3.8-27.7,8-41.2,13.2c-6.8,2.5-13.4,5.2-20.1,8.1c-6.6,2.9-13.1,5.9-19.7,9.1c-26.9,12.6-55.5,20.6-84.4,25.8
			c-7.2,1.3-14.5,2.5-21.8,3.3c-7.3,0.8-14.7,1.3-22,1.5C65.7,176.1,51.1,175.6,36.6,173.6z"/>
	</g>
</g>
</svg>
