<?xml version="1.0" encoding="utf-8"?>
<!-- Generator: Adobe Illustrator 21.0.0, SVG Export Plug-In . SVG Version: 6.00 Build 0)  -->
<svg version="1.1" id="Layer_1" xmlns="http://www.w3.org/2000/svg" xmlns:xlink="http://www.w3.org/1999/xlink" x="0px" y="0px"
	 viewBox="0 0 502 220" style="enable-background:new 0 0 502 220;" xml:space="preserve">
<style type="text/css">
	.st0{fill:#E07205;}
	.st1{fill:url(#SVGID_1_);}
</style>
<g>
	<path class="st0" d="M499,133V93.6c-2.6,14.3-15,27.8-34.8,39.4c-43.4,25.5-122.4,42.5-212.7,42.5S82.1,158.5,38.8,133
		C16.4,119.9,3.5,104.5,3.5,88H3v45h0.5c0,48.3,111,87.5,248,87.5s248-39.2,248-87.5H499z"/>
	
		<radialGradient id="SVGID_1_" cx="251.5" cy="88" r="369.7585" gradientTransform="matrix(1 0 0 0.4323 0 49.9614)" gradientUnits="userSpaceOnUse">
		<stop  offset="0" style="stop-color:#FFB200"/>
		<stop  offset="0.632" style="stop-color:#FB9100"/>
	</radialGradient>
	<path class="st1" d="M251.5,0.5c-137,0-248,39.2-248,87.5c0,16.5,12.9,31.9,35.3,45c43.4,25.5,122.4,42.5,212.7,42.5
		s169.4-17,212.7-42.5c19.8-11.6,32.2-25,34.8-39.4c0.3-1.9,0.5-3.7,0.5-5.6C499.5,39.7,388.5,0.5,251.5,0.5z"/>
</g>
</svg>
