<?xml version="1.0" encoding="utf-8"?>
<!-- Generator: Adobe Illustrator 21.0.0, SVG Export Plug-In . SVG Version: 6.00 Build 0)  -->
<svg version="1.1" id="Layer_1" xmlns="http://www.w3.org/2000/svg" xmlns:xlink="http://www.w3.org/1999/xlink" x="0px" y="0px"
	 viewBox="0 0 509 209" style="enable-background:new 0 0 509 209;" xml:space="preserve">
<style type="text/css">
	.st0{fill:#683611;}
	.st1{fill:url(#SVGID_1_);}
	.st2{opacity:0.25;}
</style>
<g>
	<path class="st0" d="M487,56l3.9,59.6C457.8,150.1,365.1,175,256,175c-112.5,0-207.5-26.4-237.8-62.7L20,60c0,0-43,40-3,85l0-0.1
		C46,181.9,142,209,256,209c117.8,0,216.5-29,241.7-67.9C529.1,98.1,487,56,487,56z"/>
	
		<radialGradient id="SVGID_1_" cx="256" cy="87.5" r="359.0031" gradientTransform="matrix(1 0 0 0.3886 0 53.4996)" gradientUnits="userSpaceOnUse">
		<stop  offset="0.1025" style="stop-color:#99541D"/>
		<stop  offset="0.3944" style="stop-color:#824716"/>
		<stop  offset="0.5351" style="stop-color:#754012"/>
	</radialGradient>
	<path class="st1" d="M8.4,92.7C8.1,90.9,8,89.2,8,87.5C8,39.2,119,0,256,0s248,39.2,248,87.5S393,175,256,175
		C123.9,175,16,138.6,8.4,92.7z"/>
	<ellipse class="st2" cx="412" cy="54.5" rx="11" ry="5.5"/>
	<ellipse class="st2" cx="119" cy="59.5" rx="11" ry="5.5"/>
	<g class="st2">
		<ellipse cx="228" cy="26.5" rx="11" ry="5.5"/>
		<ellipse cx="267.5" cy="21.2" rx="3.5" ry="1.8"/>
		<ellipse cx="302.5" cy="16.2" rx="5.5" ry="2.8"/>
		<ellipse cx="321.5" cy="29.2" rx="2.5" ry="1.2"/>
		<ellipse cx="163.5" cy="34.2" rx="3.5" ry="1.8"/>
		<ellipse cx="217.5" cy="42.2" rx="2.5" ry="1.2"/>
	</g>
	<ellipse class="st2" cx="63.5" cy="60.2" rx="3.5" ry="1.8"/>
	<ellipse class="st2" cx="58.5" cy="82.2" rx="2.5" ry="1.2"/>
	<g class="st2">
		<ellipse cx="146" cy="128.5" rx="11" ry="5.5"/>
		<ellipse cx="185.5" cy="133.8" rx="3.5" ry="1.8"/>
		<ellipse cx="220.5" cy="138.8" rx="5.5" ry="2.8"/>
		<ellipse cx="239.5" cy="125.8" rx="2.5" ry="1.2"/>
		<ellipse cx="81.5" cy="120.8" rx="3.5" ry="1.8"/>
		<ellipse cx="135.5" cy="112.8" rx="2.5" ry="1.2"/>
	</g>
	<g class="st2">
		<ellipse cx="391" cy="112.5" rx="11" ry="5.5"/>
		<ellipse cx="351.5" cy="117.8" rx="3.5" ry="1.8"/>
		<ellipse cx="316.5" cy="122.8" rx="5.5" ry="2.8"/>
		<ellipse cx="297.5" cy="109.8" rx="2.5" ry="1.2"/>
		<ellipse cx="455.5" cy="104.8" rx="3.5" ry="1.8"/>
		<ellipse cx="401.5" cy="96.8" rx="2.5" ry="1.2"/>
	</g>
</g>
</svg>
