<?xml version="1.0" encoding="utf-8"?>
<!-- Generator: Adobe Illustrator 21.0.0, SVG Export Plug-In . SVG Version: 6.00 Build 0)  -->
<svg version="1.1" id="Layer_1" xmlns="http://www.w3.org/2000/svg" xmlns:xlink="http://www.w3.org/1999/xlink" x="0px" y="0px"
	 viewBox="0 0 415 164" style="enable-background:new 0 0 415 164;" xml:space="preserve">
<style type="text/css">
	.st0{fill:#AA1505;}
	.st1{fill:url(#SVGID_1_);}
	.st2{fill:none;}
	.st3{opacity:0.53;}
	.st4{fill:url(#SVGID_2_);}
	.st5{fill:none;stroke:#000000;stroke-miterlimit:10;}
	.st6{fill:url(#SVGID_3_);}
	.st7{fill:#FF9E00;}
	.st8{fill:url(#SVGID_4_);}
	.st9{fill:url(#SVGID_5_);}
	.st10{fill:url(#SVGID_6_);}
</style>
<g>
	<g>
		<path class="st0" d="M415,73.3v17.6c0,40.4-92.9,73.2-207.4,73.2S0.1,131.3,0.1,90.8l-0.4-16.6l0.4,0c1.4,40,93.8,72.2,207.4,72.2
			C322.1,146.5,415,113.7,415,73.3z"/>
		
			<radialGradient id="SVGID_1_" cx="207.556" cy="73.2703" r="287.7963" gradientTransform="matrix(1 0 0 0.3648 0 46.5442)" gradientUnits="userSpaceOnUse">
			<stop  offset="0.1025" style="stop-color:#FB2000"/>
			<stop  offset="0.278" style="stop-color:#E41400"/>
			<stop  offset="0.5351" style="stop-color:#BB0000"/>
		</radialGradient>
		<path class="st1" d="M207.6,0.1C322.1,0.1,415,32.9,415,73.3s-92.9,73.2-207.4,73.2c-113.7,0-206-32.3-207.4-72.2
			c0-0.3,0-0.6,0-0.9C0.1,32.9,93,0.1,207.6,0.1z"/>
	</g>
	<g>
		<path class="st2" d="M415,73.3c0,40.4-92.9,73.2-207.4,73.2c-113.7,0-206-32.3-207.4-72.2c0-0.3,0-0.6,0-0.9
			C0.1,32.9,93,0.1,207.6,0.1S415,32.9,415,73.3z"/>
	</g>
	<g class="st3">
		
			<radialGradient id="SVGID_2_" cx="398.1489" cy="-1253.0449" r="144.1881" gradientTransform="matrix(1.3632 0 0 0.4612 -332.693 650.3348)" gradientUnits="userSpaceOnUse">
			<stop  offset="0.1025" style="stop-color:#FFC596"/>
			<stop  offset="0.227" style="stop-color:#FFAE83"/>
			<stop  offset="0.4874" style="stop-color:#FF7253"/>
			<stop  offset="0.5908" style="stop-color:#FF593F"/>
		</radialGradient>
		<ellipse class="st4" cx="210.1" cy="72.4" rx="196.6" ry="66.5"/>
		<path class="st5" d="M209.6,138.9"/>
		<path class="st5" d="M406.2,72.4"/>
		<g>
			<g>
				<path class="st5" d="M13.1,73.3"/>
				
					<radialGradient id="SVGID_3_" cx="332.2063" cy="-1319.6823" r="55.0965" gradientTransform="matrix(1.3632 0 0 0.4612 -332.693 650.3348)" gradientUnits="userSpaceOnUse">
					<stop  offset="0.1025" style="stop-color:#FB2000"/>
					<stop  offset="0.278" style="stop-color:#E41400"/>
					<stop  offset="0.5351" style="stop-color:#BB0000"/>
				</radialGradient>
				<path class="st6" d="M139.3,62.7c-18.6-2.5-40.7,2.9-46.5-2.2C87,55.5,112.6,44,124.2,40s64-12.2,56.9-5
					c-7,7.1,6.6,15.6,13.6,19.4l0.1-34.1c0-2.5-6.4-4.4-13.6-4.1c-19.4,0.7-56.3,3.8-89.4,16.1C59.4,44.2,49.1,56,45.7,62.4
					c-1.3,2.5,4.5,4.9,12.1,4.9H159C154.9,65.8,148.6,64,139.3,62.7z"/>
				<path class="st7" d="M182.3,24.5c-1.6,0.6-5.7,0.3-9.3-0.7c-3.5-1-5.2-2.4-3.6-3c1.6-0.6,5.7-0.3,9.3,0.7
					C182.3,22.5,183.9,23.8,182.3,24.5z"/>
				<path class="st7" d="M158.7,26.4c-0.4,0.5-3.1,0.7-6.1,0.5c-3-0.3-5-0.9-4.6-1.4c0.4-0.5,3.1-0.7,6.1-0.5S159.1,25.9,158.7,26.4
					z"/>
				<path class="st7" d="M80.5,41.5c1.3-0.3,3.8,0.1,5.5,1c1.7,0.9,2.1,1.8,0.8,2.1c-1.3,0.3-3.8-0.1-5.5-1
					C79.5,42.7,79.1,41.8,80.5,41.5z"/>
				<path class="st7" d="M122.6,28.2c-0.6-0.4,0.6-1,2.6-1.4c2.1-0.4,4.3-0.4,4.9-0.1s-0.6,1-2.6,1.4
					C125.4,28.5,123.2,28.6,122.6,28.2z"/>
				<path class="st7" d="M104.4,35.4c0.2,0.4-1.7,0.9-4.2,1s-4.6-0.2-4.8-0.6c-0.2-0.4,1.7-0.9,4.2-1
					C102.1,34.7,104.2,34.9,104.4,35.4z"/>
				<path class="st7" d="M77.6,58.1c1.2,0.3,0.6,1.3-1.4,2.1c-2,0.8-4.6,1.1-5.8,0.8c-1.2-0.3-0.6-1.3,1.4-2.1S76.4,57.8,77.6,58.1z
					"/>
			</g>
			<g>
				<path class="st5" d="M403.1,73.3"/>
				
					<radialGradient id="SVGID_4_" cx="461.2043" cy="-1319.6823" r="55.0965" gradientTransform="matrix(1.3632 0 0 0.4612 -332.693 650.3348)" gradientUnits="userSpaceOnUse">
					<stop  offset="0.1025" style="stop-color:#FB2000"/>
					<stop  offset="0.278" style="stop-color:#E41400"/>
					<stop  offset="0.5351" style="stop-color:#BB0000"/>
				</radialGradient>
				<path class="st8" d="M276.9,62.7c18.6-2.5,40.7,2.9,46.5-2.2c5.8-5-19.7-16.6-31.4-20.5c-11.6-4-64-12.2-56.9-5
					c7,7.1-6.6,15.6-13.6,19.4l-0.1-34.1c0-2.5,6.4-4.4,13.6-4.1c19.4,0.7,56.3,3.8,89.4,16.1c32.3,11.9,42.7,23.8,46,30.2
					c1.3,2.5-4.5,4.9-12.1,4.9H257.2C261.3,65.8,267.7,64,276.9,62.7z"/>
				<path class="st7" d="M233.9,24.5c1.6,0.6,5.7,0.3,9.3-0.7c3.5-1,5.2-2.4,3.6-3c-1.6-0.6-5.7-0.3-9.3,0.7
					C233.9,22.5,232.3,23.8,233.9,24.5z"/>
				<path class="st7" d="M257.5,26.4c0.4,0.5,3.1,0.7,6.1,0.5c3-0.3,5-0.9,4.6-1.4c-0.4-0.5-3.1-0.7-6.1-0.5
					C259.2,25.3,257.1,25.9,257.5,26.4z"/>
				<path class="st7" d="M335.8,41.5c-1.3-0.3-3.8,0.1-5.5,1s-2.1,1.8-0.8,2.1c1.3,0.3,3.8-0.1,5.5-1
					C336.7,42.7,337.1,41.8,335.8,41.5z"/>
				<path class="st7" d="M293.6,28.2c0.6-0.4-0.6-1-2.6-1.4c-2.1-0.4-4.3-0.4-4.9-0.1c-0.6,0.4,0.6,1,2.6,1.4
					C290.8,28.5,293,28.6,293.6,28.2z"/>
				<path class="st7" d="M311.8,35.4c-0.2,0.4,1.7,0.9,4.2,1s4.6-0.2,4.8-0.6c0.2-0.4-1.7-0.9-4.2-1C314.1,34.7,312,34.9,311.8,35.4
					z"/>
				<path class="st7" d="M338.6,58.1c-1.2,0.3-0.6,1.3,1.4,2.1c2,0.8,4.6,1.1,5.8,0.8c1.2-0.3,0.6-1.3-1.4-2.1
					C342.4,58.1,339.8,57.8,338.6,58.1z"/>
			</g>
			<g>
				<path class="st5" d="M403.1,68.9"/>
				
					<radialGradient id="SVGID_5_" cx="461.2043" cy="-1192.1189" r="55.0965" gradientTransform="matrix(1.3632 0 0 0.4612 -332.693 650.3348)" gradientUnits="userSpaceOnUse">
					<stop  offset="0.1025" style="stop-color:#FB2000"/>
					<stop  offset="0.278" style="stop-color:#E41400"/>
					<stop  offset="0.5351" style="stop-color:#BB0000"/>
				</radialGradient>
				<path class="st9" d="M276.9,79.5c18.6,2.5,40.7-2.9,46.5,2.2c5.8,5-19.7,16.6-31.4,20.5c-11.6,4-64,12.2-56.9,5
					c7-7.1-6.6-15.6-13.6-19.4l-0.1,34.1c0,2.5,6.4,4.4,13.6,4.1c19.4-0.7,56.3-3.8,89.4-16.1c32.3-11.9,42.7-23.8,46-30.2
					c1.3-2.5-4.5-4.9-12.1-4.9H257.2C261.3,76.4,267.7,78.2,276.9,79.5z"/>
				<path class="st7" d="M233.9,117.8c1.6-0.6,5.7-0.3,9.3,0.7c3.5,1,5.2,2.4,3.6,3s-5.7,0.3-9.3-0.7
					C233.9,119.7,232.3,118.4,233.9,117.8z"/>
				<path class="st7" d="M257.5,115.8c0.4-0.5,3.1-0.7,6.1-0.5c3,0.3,5,0.9,4.6,1.4s-3.1,0.7-6.1,0.5
					C259.2,117,257.1,116.3,257.5,115.8z"/>
				<path class="st7" d="M335.8,100.7c-1.3,0.3-3.8-0.1-5.5-1s-2.1-1.8-0.8-2.1c1.3-0.3,3.8,0.1,5.5,1
					C336.7,99.5,337.1,100.4,335.8,100.7z"/>
				<path class="st7" d="M293.6,114c0.6,0.4-0.6,1-2.6,1.4c-2.1,0.4-4.3,0.4-4.9,0.1c-0.6-0.4,0.6-1,2.6-1.4S293,113.7,293.6,114z"
					/>
				<path class="st7" d="M311.8,106.9c-0.2-0.4,1.7-0.9,4.2-1c2.5-0.1,4.6,0.2,4.8,0.6c0.2,0.4-1.7,0.9-4.2,1
					C314.1,107.6,312,107.3,311.8,106.9z"/>
				<path class="st7" d="M338.6,84.1c-1.2-0.3-0.6-1.3,1.4-2.1c2-0.8,4.6-1.1,5.8-0.8c1.2,0.3,0.6,1.3-1.4,2.1
					C342.4,84.1,339.8,84.5,338.6,84.1z"/>
			</g>
			<g>
				<path class="st5" d="M13.1,68.9"/>
				
					<radialGradient id="SVGID_6_" cx="332.2063" cy="-1192.1189" r="55.0965" gradientTransform="matrix(1.3632 0 0 0.4612 -332.693 650.3348)" gradientUnits="userSpaceOnUse">
					<stop  offset="0.1025" style="stop-color:#FB2000"/>
					<stop  offset="0.278" style="stop-color:#E41400"/>
					<stop  offset="0.5351" style="stop-color:#BB0000"/>
				</radialGradient>
				<path class="st10" d="M139.3,79.5c-18.6,2.5-40.7-2.9-46.5,2.2c-5.8,5,19.7,16.6,31.4,20.5s64,12.2,56.9,5
					c-7-7.1,6.6-15.6,13.6-19.4l0.1,34.1c0,2.5-6.4,4.4-13.6,4.1c-19.4-0.7-56.3-3.8-89.4-16.1c-32.3-11.9-42.7-23.8-46-30.2
					c-1.3-2.5,4.5-4.9,12.1-4.9H159C154.9,76.4,148.6,78.2,139.3,79.5z"/>
				<path class="st7" d="M182.3,117.8c-1.6-0.6-5.7-0.3-9.3,0.7c-3.5,1-5.2,2.4-3.6,3s5.7,0.3,9.3-0.7
					C182.3,119.7,183.9,118.4,182.3,117.8z"/>
				<path class="st7" d="M158.7,115.8c-0.4-0.5-3.1-0.7-6.1-0.5c-3,0.3-5,0.9-4.6,1.4s3.1,0.7,6.1,0.5S159.1,116.3,158.7,115.8z"/>
				<path class="st7" d="M80.5,100.7c1.3,0.3,3.8-0.1,5.5-1c1.7-0.9,2.1-1.8,0.8-2.1c-1.3-0.3-3.8,0.1-5.5,1
					C79.5,99.5,79.1,100.4,80.5,100.7z"/>
				<path class="st7" d="M122.6,114c-0.6,0.4,0.6,1,2.6,1.4c2.1,0.4,4.3,0.4,4.9,0.1c0.6-0.4-0.6-1-2.6-1.4
					C125.4,113.7,123.2,113.7,122.6,114z"/>
				<path class="st7" d="M104.4,106.9c0.2-0.4-1.7-0.9-4.2-1c-2.5-0.1-4.6,0.2-4.8,0.6c-0.2,0.4,1.7,0.9,4.2,1
					C102.1,107.6,104.2,107.3,104.4,106.9z"/>
				<path class="st7" d="M77.6,84.1c1.2-0.3,0.6-1.3-1.4-2.1c-2-0.8-4.6-1.1-5.8-0.8c-1.2,0.3-0.6,1.3,1.4,2.1
					C73.8,84.1,76.4,84.5,77.6,84.1z"/>
			</g>
		</g>
	</g>
</g>
</svg>
